<?xml version="1.0" encoding="utf-8"?>
<!-- Generator: Adobe Illustrator 16.0.0, SVG Export Plug-In . SVG Version: 6.00 Build 0)  -->
<!DOCTYPE svg PUBLIC "-//W3C//DTD SVG 1.1//EN" "http://www.w3.org/Graphics/SVG/1.1/DTD/svg11.dtd">
<svg version="1.1" id="Layer_1" xmlns="http://www.w3.org/2000/svg" xmlns:xlink="http://www.w3.org/1999/xlink" x="0px" y="0px"
	 width="566.93px" height="566.93px" viewBox="0 0 566.93 566.93" enable-background="new 0 0 566.93 566.93" xml:space="preserve">
<g>
	<path display="none" fill="#3B5791" d="M535.459,566.74c17.27,0,31.278-14.005,31.278-31.278V31.28
		c0-17.278-14.009-31.28-31.278-31.28H31.279C14,0,0,14.002,0,31.28v504.182c0,17.273,14,31.278,31.279,31.278H535.459z"/>
	<path fill="#FFFFFF" d="M391.038,566.74V347.271h73.67l11.028-85.535h-84.698V207.13c0-24.765,6.876-41.641,42.389-41.641
		l45.293-0.021v-76.5c-7.833-1.04-34.719-3.37-65.998-3.37c-65.304,0-110.008,39.859-110.008,113.062v63.076h-73.856v85.535h73.856
		V566.74H391.038z"/>
</g>
</svg>
