<?xml version="1.0" encoding="utf-8"?>
<!-- Generator: Adobe Illustrator 15.1.0, SVG Export Plug-In . SVG Version: 6.00 Build 0)  -->
<!DOCTYPE svg PUBLIC "-//W3C//DTD SVG 1.1//EN" "http://www.w3.org/Graphics/SVG/1.1/DTD/svg11.dtd">
<svg version="1.1" id="Layer_1" xmlns="http://www.w3.org/2000/svg" xmlns:xlink="http://www.w3.org/1999/xlink" x="0px" y="0px"
	 width="56.689px" height="28.35px" viewBox="0 0 56.689 28.35" enable-background="new 0 0 56.689 28.35" xml:space="preserve">
<g>
	<polygon fill="#FF9274" points="14.497,26.893 8.669,26.893 16.495,1.457 22.322,1.457 	"/>
	<polygon fill="#FF9274" points="44.422,11.261 40.749,11.261 43.765,1.457 37.936,1.457 34.922,11.261 31.247,11.261 29.454,17.09 
		33.128,17.09 30.109,26.893 35.938,26.893 38.955,17.09 42.629,17.09 	"/>
	<polygon fill="#FF9274" points="7.902,1.457 3.915,1.457 3.915,5.445 6.676,5.445 0.076,26.893 5.904,26.893 13.73,1.457 	"/>
	<polygon fill="#FF9274" points="50.786,1.457 46.8,1.457 46.8,5.445 49.561,5.445 42.962,26.893 48.787,26.893 56.613,1.457 	"/>
	<polygon fill="#FF9274" points="30.915,1.457 25.088,1.457 17.262,26.893 23.089,26.893 27.078,26.893 27.078,22.904 
		24.316,22.904 	"/>
</g>
</svg>
